<svg width="468" height="82" viewBox="0 0 468 82" fill="none" xmlns="http://www.w3.org/2000/svg">
<path fill-rule="evenodd" clip-rule="evenodd" d="M0 41V82H41H82V76V70H79C76.333 70 76 70.333 76 73V76H40.987H5.974L6.237 41.25L6.5 6.5L25.75 6.228L45 5.957V2.978V0H22.5H0V41ZM53.014 3.752C45.206 7.668 44.946 16.116 52.321 26.341C53.724 28.285 53.901 29.317 53.092 30.828C51.46 33.877 46.616 35 35.086 35C26.339 35 23.806 34.644 20.694 32.976L16.918 30.952L15.571 34.226C13.539 39.165 12.718 45.633 13.479 50.709C14.006 54.221 15.201 56.37 18.72 60.132C24.826 66.66 29.496 68 46.132 68C61.787 68 67.491 66.869 72.452 62.779C80.118 56.46 81.037 48.151 75.344 36.644C70.742 27.344 71.129 26 78.41 26C84.112 26 86.56 24.63 82.921 23.475C80.838 22.814 80.845 22.772 83.406 20.098C84.833 18.609 86 16.636 86 15.714C86 14.304 85.289 14.136 81.521 14.652L77.043 15.266L75.122 10.785C72.328 4.267 68.971 2 62.115 2.002C58.768 2.002 55.092 2.709 53.014 3.752ZM66.384 9.442C65.389 12.034 66.476 14.494 68.76 14.82C71.081 15.151 71.731 13.068 70.393 9.582C69.634 7.605 67.123 7.517 66.384 9.442Z" fill="url(#paint0_linear_1237_2795)"/>
<path fill-rule="evenodd" clip-rule="evenodd" d="M441.615 16.1611C434.328 18.8491 430.383 25.9681 432.074 33.3801C433.288 38.7021 437.204 42.4191 444.999 45.6461C452.559 48.7761 455.115 50.6271 455.115 52.9731C455.115 57.7101 446.42 58.5231 438.534 54.5221C435.829 53.1491 433.278 52.0241 432.865 52.0221C432.452 52.0201 432.115 54.2931 432.115 57.0741V62.1301L436.865 64.3041C443.781 67.4671 455.191 67.4031 460.389 64.1711C465.14 61.2181 467.116 57.4391 467.111 51.3181C467.105 43.5211 464.595 40.5731 453.578 35.4251C445.493 31.6471 444.115 30.6541 444.115 28.6081C444.115 24.9301 448.647 23.7451 455.692 25.5801C458.765 26.3801 462.142 27.4971 463.197 28.0621C464.971 29.0111 465.115 28.7061 465.115 24.0021C465.115 19.0731 464.999 18.8671 461.365 17.3311C456.676 15.3491 445.595 14.6931 441.615 16.1611ZM114.308 20.2681L114.615 24.5181L122.865 24.8081L131.115 25.0991V45.5581V66.0181H137.115H143.115V45.5181V25.0181H151.615H160.115V20.5181V16.0181H137.058H114L114.308 20.2681ZM164.115 16.5801C164.115 16.8901 167.959 22.1401 172.658 28.2471C177.357 34.3541 180.971 39.9501 180.69 40.6831C180.409 41.4151 176.101 47.4161 171.116 54.0161L162.053 66.0181H169.593H177.133L182.874 58.0801C186.031 53.7141 188.866 50.1141 189.173 50.0801C189.479 50.0461 192.378 53.6181 195.615 58.0181L201.5 66.0181H208.807C212.827 66.0181 216.115 65.7431 216.115 65.4071C216.115 64.9281 207.567 53.6291 197.853 41.2681C197.148 40.3711 199.305 36.7761 205.493 28.5391C210.235 22.2251 214.115 16.8251 214.115 16.5391C214.115 16.2521 210.853 16.0251 206.865 16.0341L199.615 16.0501L194.711 23.0341C192.014 26.8751 189.539 30.0051 189.211 29.9881C188.883 29.9721 186.365 26.8351 183.615 23.0181L178.615 16.0771L171.365 16.0481C167.377 16.0311 164.115 16.2711 164.115 16.5801ZM219.115 20.5181V25.0181H227.615H236.115V45.5181V66.0181H242.115H248.115V45.5581V25.0991L256.365 24.8081L264.615 24.5181L264.922 20.2681L265.23 16.0181H242.172H219.115V20.5181ZM290.115 41.0181V66.0181H308.115H326.115V61.5181V57.0181H314.115H302.115V36.5181V16.0181H296.115H290.115V41.0181ZM344.302 21.2261C343.208 24.1371 339.119 35.0221 335.214 45.4161C331.31 55.8101 328.115 64.7191 328.115 65.2141C328.115 65.7091 330.869 65.9791 334.235 65.8161L340.356 65.5181L342.014 61.0181L343.672 56.5181H354.01H364.347L366.006 61.0181L367.664 65.5181L373.889 65.8161C377.314 65.9791 380.112 65.7541 380.107 65.3161C380.103 64.8771 375.659 53.7181 370.231 40.5181L360.362 16.5181L353.326 16.2261L346.29 15.9341L344.302 21.2261ZM386.115 40.9421V66.0181H400.165C410.283 66.0181 414.97 65.6251 416.915 64.6131C426.824 59.4571 428.028 45.5841 419.04 40.1181C416.31 38.4591 416.202 38.1911 417.743 36.9131C420.307 34.7861 422.159 29.4881 421.496 26.1731C421.169 24.5401 419.351 21.7001 417.456 19.8611L414.01 16.5181L400.062 16.1921L386.115 15.8671V40.9421ZM398.115 30.5181V36.0181H401.392C405.632 36.0181 409.115 33.5441 409.115 30.5331C409.115 27.0381 406.525 25.0181 402.044 25.0181H398.115V30.5181ZM352.725 30.0181C351.869 32.1751 347.115 46.3071 347.115 46.6931C347.115 46.8721 350.04 47.0181 353.615 47.0181C357.19 47.0181 360.098 46.6811 360.076 46.2681C360.055 45.8551 358.526 41.6931 356.679 37.0181C354.63 31.8321 353.088 29.1031 352.725 30.0181ZM398.115 51.1421V57.2661L403.554 56.8151C409.962 56.2831 412.115 54.8091 412.115 50.9521C412.115 47.1261 408.84 45.0181 402.892 45.0181H398.115V51.1421Z" fill="url(#paint1_linear_1237_2795)"/>
<defs>
<linearGradient id="paint0_linear_1237_2795" x1="43" y1="0" x2="43" y2="82" gradientUnits="userSpaceOnUse">
<stop stop-color="#FE8236"/>
<stop offset="1" stop-color="#EF4E2F"/>
</linearGradient>
<linearGradient id="paint1_linear_1237_2795" x1="114" y1="40.9999" x2="467.111" y2="40.9999" gradientUnits="userSpaceOnUse">
<stop stop-color="#0099B1"/>
<stop offset="1" stop-color="#0065A1"/>
</linearGradient>
</defs>
</svg>
